<?xml version="1.0" standalone="no"?>
<!DOCTYPE svg PUBLIC "-//W3C//DTD SVG 20010904//EN"
 "http://www.w3.org/TR/2001/REC-SVG-20010904/DTD/svg10.dtd">
<svg version="1.0" xmlns="http://www.w3.org/2000/svg"
 width="700.000000pt" height="700.000000pt" viewBox="0 0 700.000000 700.000000"
 preserveAspectRatio="xMidYMid meet">
<metadata>
Created by potrace 1.11, written by Peter Selinger 2001-2013
</metadata>
<g transform="translate(0.000000,700.000000) scale(0.100000,-0.100000)"
fill="#000000" stroke="none">
<path d="M3445 6981 c-280 -69 -475 -320 -473 -608 1 -117 32 -231 88 -318 17
-27 28 -66 14 -53 -9 10 -136 -41 -207 -83 -42 -25 -100 -74 -150 -127 -190
-199 -218 -225 -360 -338 -112 -89 -372 -218 -567 -279 -100 -32 -175 -84
-223 -155 l-17 -25 -153 151 c-83 83 -166 161 -183 172 -44 30 -127 49 -192
45 -111 -8 -129 -23 -564 -457 -457 -458 -454 -453 -452 -591 1 -140 -19 -114
588 -722 480 -480 550 -546 602 -570 100 -46 220 -35 309 27 22 16 123 112
224 214 102 102 186 184 188 183 1 -2 -38 -109 -87 -240 -50 -130 -90 -251
-90 -269 0 -104 131 -166 215 -102 18 14 41 44 50 67 9 23 99 258 200 522 100
264 197 517 215 563 l32 83 546 -3 547 -3 63 -29 c72 -33 146 -107 182 -183
19 -39 24 -65 24 -138 1 -49 -2 -101 -6 -115 -4 -14 -23 -83 -44 -155 -20 -71
-40 -143 -44 -160 -11 -38 -28 -101 -85 -305 -25 -91 -64 -230 -86 -310 -51
-187 -64 -221 -94 -243 -55 -40 -142 -20 -169 38 -21 44 -21 44 18 283 19 114
37 229 41 256 3 27 8 52 9 55 2 3 6 29 10 56 3 28 8 61 11 75 5 31 32 200 40
255 3 22 10 65 15 95 12 65 6 104 -20 140 -35 49 -67 55 -281 55 -194 0 -196
0 -228 -25 -35 -27 -27 -12 -706 -1355 -186 -369 -357 -706 -379 -750 -53
-105 -82 -130 -155 -130 -64 0 -101 21 -126 72 -23 47 -19 70 35 213 28 73 50
146 50 162 0 104 -116 167 -207 113 -36 -21 -46 -38 -99 -176 -54 -142 -66
-186 -65 -253 1 -74 3 -85 31 -160 41 -109 176 -219 295 -241 156 -28 311 28
407 147 19 23 158 286 308 583 150 297 383 758 517 1025 135 267 251 490 259
496 7 6 27 9 44 6 29 -4 31 -6 25 -41 -23 -149 -47 -295 -55 -341 -5 -30 -16
-100 -25 -155 -8 -55 -17 -109 -19 -120 -2 -11 -7 -40 -10 -65 -4 -25 -8 -54
-10 -65 -12 -61 -20 -135 -18 -173 5 -137 94 -273 217 -331 25 -12 45 -23 45
-25 0 -3 -341 -346 -758 -763 -417 -417 -766 -769 -775 -783 -8 -14 -16 -36
-17 -50 -6 -76 -8 -73 218 -301 119 -120 232 -226 251 -235 23 -11 46 -14 76
-9 41 6 65 27 438 399 217 216 402 404 411 419 36 53 16 138 -41 181 -29 22
-89 28 -127 12 -14 -6 -178 -163 -364 -348 l-338 -338 -99 100 -100 100 1252
1252 1253 1253 252 -252 c141 -140 266 -257 283 -263 17 -6 48 -9 71 -5 38 5
71 35 474 439 238 238 436 439 441 447 32 58 13 128 -52 190 -40 38 -43 51
-16 55 45 7 81 14 147 27 41 9 86 18 100 21 14 2 116 23 226 45 111 23 206 41
211 41 6 0 3 -37 -9 -92 -10 -51 -21 -104 -23 -118 -3 -14 -19 -92 -36 -175
-30 -148 -35 -173 -43 -217 -13 -75 -19 -104 -22 -109 -2 -4 -36 24 -75 62
-75 73 -108 87 -171 74 -27 -6 -142 -116 -605 -577 l-571 -571 -258 256 c-241
240 -260 257 -301 263 -25 4 -55 2 -71 -5 -15 -6 -214 -197 -441 -425 -443
-443 -442 -442 -420 -520 19 -67 100 -111 173 -92 15 4 170 150 381 361 l357
355 251 -251 c139 -138 262 -255 275 -260 37 -14 95 -10 122 8 14 9 277 268
584 575 l560 558 116 -115 c71 -70 125 -115 138 -116 74 -5 90 -1 126 31 30
26 40 48 52 105 1 6 11 57 23 115 12 58 23 114 25 125 2 11 11 54 19 95 9 41
18 86 21 100 2 14 29 149 60 300 30 151 58 290 61 309 3 19 7 37 9 40 2 3 7
29 11 58 8 64 -10 111 -55 143 -40 28 -88 30 -190 6 -14 -3 -36 -8 -50 -10
-14 -2 -36 -7 -50 -10 -14 -3 -36 -8 -50 -10 -14 -3 -56 -11 -95 -19 -38 -9
-83 -18 -100 -21 -16 -2 -41 -7 -55 -10 -28 -6 -163 -34 -196 -40 -325 -63
-497 -100 -530 -116 -51 -26 -74 -65 -74 -125 0 -45 3 -49 95 -144 52 -54 95
-101 95 -105 0 -3 -139 -146 -309 -316 l-308 -309 -239 240 c-132 132 -252
248 -269 258 -41 26 -85 31 -124 15 -19 -8 -161 -142 -338 -319 -168 -169
-303 -300 -301 -293 3 7 47 164 97 348 51 184 96 346 102 360 25 68 46 200 43
279 -9 231 -144 442 -351 545 -32 16 -59 30 -60 30 -1 1 18 60 43 131 25 72
65 185 87 252 l42 122 120 0 c131 0 217 6 310 22 33 6 74 13 90 16 57 9 269
84 365 129 52 25 144 78 205 119 234 156 308 254 314 413 10 259 -239 450
-486 373 -37 -12 -84 -34 -104 -49 -20 -15 -61 -46 -90 -69 -128 -99 -233
-142 -364 -150 -145 -9 -289 40 -406 139 l-32 27 24 9 c108 42 145 65 229 147
300 291 224 800 -148 992 -42 22 -99 45 -127 52 -81 21 -230 22 -310 2z m250
-270 c98 -26 201 -129 231 -228 45 -155 -9 -310 -138 -396 -129 -85 -289 -80
-409 15 -227 179 -156 529 125 613 47 14 133 12 191 -4z m-343 -977 c82 -21
143 -58 217 -132 259 -259 619 -334 946 -197 60 25 151 81 235 145 90 68 108
77 140 75 52 -4 100 -52 100 -100 0 -59 -113 -162 -286 -260 -141 -81 -361
-155 -514 -173 -70 -8 -306 -8 -385 1 -75 8 -135 -17 -158 -66 -9 -18 -66
-176 -127 -352 -61 -176 -114 -322 -116 -325 -3 -3 -199 -5 -435 -5 -334 0
-429 2 -429 12 0 7 14 65 31 130 17 65 33 125 35 133 2 8 24 94 49 190 25 96
73 281 107 410 68 265 92 322 163 395 114 118 268 161 427 119z m-917 -683
c-19 -73 -35 -134 -35 -136 0 -7 -92 -56 -180 -95 -52 -23 -104 -45 -115 -50
-69 -31 -213 -70 -241 -65 -40 7 -85 55 -86 91 -2 67 28 100 117 127 159 48
368 144 502 231 38 23 69 40 71 36 1 -4 -13 -66 -33 -139z m-1099 -232 c148
-148 274 -275 281 -282 6 -7 118 -117 247 -246 130 -129 236 -242 236 -250 0
-16 -268 -291 -283 -291 -4 0 -73 66 -153 146 l-146 146 40 42 c59 61 72 130
33 184 -28 40 -335 343 -362 358 -30 16 -83 18 -112 3 -12 -6 -40 -28 -62 -49
l-40 -37 -133 133 -132 134 139 140 c82 82 148 140 159 140 11 0 124 -106 288
-271z m-518 -531 c-33 -120 0 -235 97 -337 99 -104 219 -142 345 -107 l55 15
155 -155 154 -154 -139 -140 c-88 -88 -147 -140 -160 -140 -13 0 -195 175
-538 518 -428 428 -517 522 -511 538 4 10 69 80 143 155 l136 136 139 -138
139 -138 -15 -53z m1460 160 c-16 -62 -31 -119 -34 -127 -3 -10 -30 11 -84 64
-44 44 -80 83 -80 87 0 5 8 8 18 8 12 1 177 63 208 79 1 1 -12 -50 -28 -111z
m-1053 -193 c30 -31 55 -57 55 -59 0 -15 -94 -93 -111 -92 -28 1 -89 64 -89
92 0 13 18 42 43 68 23 25 43 45 44 46 2 0 27 -25 58 -55z"/>
<path d="M1624 2556 c-129 -56 -85 -259 56 -259 108 0 172 126 108 215 -37 52
-104 70 -164 44z"/>
<path d="M3313 1394 c-41 -20 -62 -53 -69 -106 -17 -139 174 -204 246 -85 72
117 -54 252 -177 191z"/>
</g>
</svg>
